Coordinates
version=1
nRows=49
nColumns=12
inDegrees=yes

Units are S.I. units (second, meters, Newtons, ...)
Angles are in degrees

endheader
time	SC_y	SC_z	SC_x	AC_y	AC_z	AC_x	GH_y	GH_z	GH_yy	EL_x	PS_y
       0.0              -25.63          32.34           72.0          34.03         -7.557          19.35         -23.24          7.743          -20.0          19.63          51.15
    0.0455              -25.63          32.34           72.0          34.03         -7.558          19.35         -23.23          7.744         -20.01          19.64          51.16
   0.09099              -25.63          32.33          71.99          34.03         -7.559          19.35         -23.22          7.745         -20.01          19.65          51.17
    0.1365              -25.64          32.33          71.98          34.03          -7.56          19.35         -23.21          7.746         -20.02          19.66          51.19
     0.182              -25.64          32.32          71.98          34.03         -7.562          19.34          -23.2          7.748         -20.03          19.67           51.2
    0.2275              -25.64          32.32          71.97          34.03         -7.563          19.34         -23.19          7.749         -20.03          19.68          51.22
     0.273              -25.64          32.31          71.96          34.04         -7.565          19.34         -23.18          7.751         -20.04           19.7          51.24
    0.3185              -25.65           32.3          71.95          34.04         -7.566          19.34         -23.16          7.752         -20.05          19.71          51.26
     0.364              -25.65           32.3          71.95          34.04         -7.568          19.34         -23.15          7.754         -20.06          19.73          51.28
    0.4095              -25.66          32.29          71.94          34.04          -7.57          19.34         -23.13          7.756         -20.07          19.74           51.3
     0.455              -25.66          32.28          71.93          34.04         -7.572          19.33         -23.12          7.758         -20.08          19.76          51.33
    0.5005              -25.66          32.27          71.92          34.04         -7.574          19.33          -23.1           7.76         -20.09          19.78          51.35
     0.546              -25.67          32.26           71.9          34.04         -7.576          19.33         -23.08          7.762          -20.1           19.8          51.38
    0.5915              -25.67          32.25          71.89          34.04         -7.579          19.33         -23.06          7.765         -20.12          19.83          51.41
     0.637              -25.68          32.24          71.88          34.04         -7.581          19.32         -23.04          7.768         -20.13          19.85          51.44
    0.6825              -25.69          32.23          71.86          34.04         -7.584          19.32         -23.02          7.771         -20.14          19.88          51.48
     0.728              -25.69          32.22          71.85          34.05         -7.587          19.32         -22.99          7.774         -20.16           19.9          51.52
    0.7734               -25.7           32.2          71.83          34.05         -7.591          19.31         -22.96          7.777         -20.18          19.94          51.56
    0.8189              -25.71          32.19          71.81          34.05         -7.594          19.31         -22.93          7.781          -20.2          19.97           51.6
    0.8644              -25.72          32.17          71.79          34.05         -7.599          19.31          -22.9          7.785         -20.22          20.01          51.65
    0.9099              -25.73          32.15          71.77          34.05         -7.603           19.3         -22.86           7.79         -20.24          20.05          51.71
    0.9554              -25.74          32.13          71.74          34.05         -7.608           19.3         -22.82          7.795         -20.27          20.09          51.77
     1.001              -25.75          32.11          71.71          34.06         -7.614          19.29         -22.78          7.801          -20.3          20.14          51.84
     1.046              -25.76          32.08          71.68          34.06          -7.62          19.28         -22.73          7.807         -20.33           20.2          51.91
     1.092              -25.78          32.05          71.65          34.06         -7.626          19.28         -22.67          7.814         -20.37          20.26          51.99
     1.137              -25.79          32.02          71.61          34.07         -7.634          19.27         -22.61          7.821         -20.41          20.33          52.09
     1.183              -25.81          31.99          71.57          34.07         -7.642          19.26         -22.54           7.83         -20.45           20.4          52.19
     1.228              -25.83          31.95          71.52          34.07         -7.652          19.25         -22.46          7.839          -20.5          20.49          52.31
     1.274              -25.85           31.9          71.46          34.08         -7.662          19.24         -22.38           7.85         -20.56          20.59          52.44
     1.319              -25.88          31.85           71.4          34.08         -7.675          19.22         -22.28          7.863         -20.62           20.7          52.59
     1.365              -25.91           31.8          71.33          34.09         -7.689          19.21         -22.17          7.877         -20.69          20.82          52.76
      1.41              -25.94          31.73          71.25           34.1         -7.704          19.19         -22.04          7.893         -20.78          20.97          52.95
     1.456              -25.98          31.65          71.16          34.11         -7.723          19.17         -21.89          7.912         -20.87          21.14          53.18
     1.501              -26.03          31.57          71.05          34.11         -7.744          19.15         -21.71          7.934         -20.99          21.33          53.44
     1.547              -26.08          31.46          70.92          34.13         -7.769          19.13         -21.51          7.959         -21.12          21.56          53.74
     1.592              -26.15          31.34          70.77          34.14         -7.799          19.09         -21.27          7.989         -21.27          21.82           54.1
     1.638              -26.22           31.2          70.59          34.15         -7.834          19.06         -20.98          8.025         -21.46          22.14          54.53
     1.683              -26.31          31.02          70.38          34.17         -7.876          19.01         -20.64          8.068         -21.68          22.52          55.05
     1.729              -26.42          30.81          70.12           34.2         -7.927          18.96         -20.22           8.12         -21.95          22.99          55.67
     1.774              -26.55          30.56          69.81          34.22         -7.989          18.89         -19.72          8.183         -22.27          23.55          56.43
      1.82              -26.72          30.24          69.42          34.26         -8.065          18.81         -19.09          8.261         -22.68          24.25          57.36
     1.865              -26.92          29.84          68.93           34.3         -8.161          18.71         -18.31          8.358         -23.18          25.11          58.53
     1.911              -27.18          29.35          68.32          34.35         -8.281          18.59         -17.33          8.481         -23.81          26.21          60.01
     1.956              -27.51          28.71          67.54          34.42         -8.434          18.42         -16.08          8.637         -24.62           27.6          61.88
     2.002              -27.93           27.9          66.54          34.51          -8.63          18.22         -14.49          8.837         -25.65          29.38          64.27
     2.047              -28.47          26.87          65.27          34.62         -8.881          17.95         -12.44          9.093         -26.97          31.66          67.35
     2.093              -29.15          25.54          63.63          34.76         -9.202          17.61         -9.818           9.42         -28.66          34.57          71.27
     2.138              -30.02          23.87          61.58          34.94         -9.606          17.19         -6.526          9.831         -30.78          38.24          76.21
     2.184              -31.07          21.84          59.08          35.16          -10.1          16.67         -2.514          10.33         -33.37          42.71          82.23
